<?xml version="1.0" standalone="no"?>
<!DOCTYPE svg PUBLIC "-//W3C//DTD SVG 1.0//EN" "http://www.w3.org/TR/2001/REC-SVG-20010904/DTD/svg10.dtd">
<svg xmlns="http://www.w3.org/2000/svg" xmlns:xlink="http://www.w3.org/1999/xlink" id="body_1" width="400" height="150">

<g transform="matrix(1.1428573 0 0 1.1428573 -267.4286 -345.57147)">
    <path d="M0 0L350 0L350 120.00001L0 120.00001z" stroke="none" fill="#FFFFFF" fill-rule="nonzero" fill-opacity="0" />
	<g transform="matrix(0 0 0 0 0 0)">
	</g>
	<g transform="matrix(1 0 0 1 175 60)">
        <path d="M-175 -60C -175 -60 -175 -60 -175 -60L-175 -60L175 -60C 175 -60 175 -60 175 -60L175 -60L175 60C 175 60 175 60 175 60L175 60L-175 60C -175 60 -175 60 -175 60L-175 60L-175 -60z" stroke="none" fill="#FFFFFF" fill-rule="nonzero" />
	</g>
	<g transform="matrix(9.65 0 0 7.85 386.92 366.54)">
		<g>
			<g transform="matrix(1 0 0 1 0 0)">
                <path transform="matrix(1 0 0 1 -175 -70)"  d="M0 0L350 0L350 140L0 140L0 0z" stroke="none" fill="#5E2129" fill-rule="nonzero" fill-opacity="0.8784314" />
			</g>
			<g transform="matrix(0 1 -1 -0 -125.52 -59.2)">
                <path d="M-14.8 0C -14.8 -8.192593 -8.173815 -14.834 0 -14.834C 8.173815 -14.834 14.8 -8.192593 14.8 0C 14.8 8.192593 8.173815 14.834 0 14.834C -8.173815 14.834 -14.8 8.192593 -14.8 0" stroke="none" fill="#5E2129" fill-rule="nonzero" fill-opacity="0.4392157" />
			</g>
			<g transform="matrix(-1 -0 -0 -1 -171.16 -59.2)">
                <path d="M-14.834 0C -14.834 -8.173815 -8.192593 -14.8 0 -14.8C 8.192593 -14.8 14.834 -8.173815 14.834 0C 14.834 8.173815 8.192593 14.8 0 14.8C -8.192593 14.8 -14.834 8.173815 -14.834 0" stroke="none" fill="#5E2129" fill-rule="nonzero" fill-opacity="0.4392157" />
			</g>
			<g transform="matrix(1 0 0 1 -34.24 -59.2)">
                <path d="M-14.834 0C -14.834 -8.173815 -8.192593 -14.8 0 -14.8C 8.192593 -14.8 14.834 -8.173815 14.834 0C 14.834 8.173815 8.192593 14.8 0 14.8C -8.192593 14.8 -14.834 8.173815 -14.834 0" stroke="none" fill="#5E2129" fill-rule="nonzero" fill-opacity="0.4392157" />
			</g>
			<g transform="matrix(-0 -1 1 0 -79.88 -59.2)">
                <path d="M-14.8 0C -14.8 -8.192593 -8.173815 -14.834 0 -14.834C 8.173815 -14.834 14.8 -8.192593 14.8 0C 14.8 8.192593 8.173815 14.834 0 14.834C -8.173815 14.834 -14.8 8.192593 -14.8 0" stroke="none" fill="#5E2129" fill-rule="nonzero" fill-opacity="0.4392157" />
			</g>
			<g transform="matrix(0 1 -1 -0 57.06 -59.2)">
                <path d="M-14.8 0C -14.8 -8.192593 -8.173815 -14.834 0 -14.834C 8.173815 -14.834 14.8 -8.192593 14.8 0C 14.8 8.192593 8.173815 14.834 0 14.834C -8.173815 14.834 -14.8 8.192593 -14.8 0" stroke="none" fill="#5E2129" fill-rule="nonzero" fill-opacity="0.4392157" />
			</g>
			<g transform="matrix(-1 -0 -0 -1 11.42 -59.2)">
                <path d="M-14.834 0C -14.834 -8.173815 -8.192593 -14.8 0 -14.8C 8.192593 -14.8 14.834 -8.173815 14.834 0C 14.834 8.173815 8.192593 14.8 0 14.8C -8.192593 14.8 -14.834 8.173815 -14.834 0" stroke="none" fill="#5E2129" fill-rule="nonzero" fill-opacity="0.4392157" />
			</g>
			<g transform="matrix(1 0 0 1 148.34 -59.2)">
                <path d="M-14.834 0C -14.834 -8.173815 -8.192593 -14.8 0 -14.8C 8.192593 -14.8 14.834 -8.173815 14.834 0C 14.834 8.173815 8.192593 14.8 0 14.8C -8.192593 14.8 -14.834 8.173815 -14.834 0" stroke="none" fill="#5E2129" fill-rule="nonzero" fill-opacity="0.4392157" />
			</g>
			<g transform="matrix(-0 -1 1 0 102.7 -59.2)">
                <path d="M-14.8 0C -14.8 -8.192593 -8.173815 -14.834 0 -14.834C 8.173815 -14.834 14.8 -8.192593 14.8 0C 14.8 8.192593 8.173815 14.834 0 14.834C -8.173815 14.834 -14.8 8.192593 -14.8 0" stroke="none" fill="#5E2129" fill-rule="nonzero" fill-opacity="0.4392157" />
			</g>
			<g transform="matrix(0 1 -1 -0 -125.52 36.43)">
                <path d="M-14.8 0C -14.8 -8.192593 -8.173815 -14.834 0 -14.834C 8.173815 -14.834 14.8 -8.192593 14.8 0C 14.8 8.192593 8.173815 14.834 0 14.834C -8.173815 14.834 -14.8 8.192593 -14.8 0" stroke="none" fill="#5E2129" fill-rule="nonzero" fill-opacity="0.4392157" />
			</g>
			<g transform="matrix(-1 -0 -0 -1 -171.16 36.43)">
                <path d="M-14.834 0C -14.834 -8.173815 -8.192593 -14.8 0 -14.8C 8.192593 -14.8 14.834 -8.173815 14.834 0C 14.834 8.173815 8.192593 14.8 0 14.8C -8.192593 14.8 -14.834 8.173815 -14.834 0" stroke="none" fill="#5E2129" fill-rule="nonzero" fill-opacity="0.4392157" />
			</g>
			<g transform="matrix(1 0 0 1 -34.24 36.43)">
                <path d="M-14.834 0C -14.834 -8.173815 -8.192593 -14.8 0 -14.8C 8.192593 -14.8 14.834 -8.173815 14.834 0C 14.834 8.173815 8.192593 14.8 0 14.8C -8.192593 14.8 -14.834 8.173815 -14.834 0" stroke="none" fill="#5E2129" fill-rule="nonzero" fill-opacity="0.4392157" />
			</g>
			<g transform="matrix(-0 -1 1 0 -79.88 36.43)">
                <path d="M-14.8 0C -14.8 -8.192593 -8.173815 -14.834 0 -14.834C 8.173815 -14.834 14.8 -8.192593 14.8 0C 14.8 8.192593 8.173815 14.834 0 14.834C -8.173815 14.834 -14.8 8.192593 -14.8 0" stroke="none" fill="#5E2129" fill-rule="nonzero" fill-opacity="0.4392157" />
			</g>
			<g transform="matrix(0 1 -1 -0 57.06 36.43)">
                <path d="M-14.8 0C -14.8 -8.192593 -8.173815 -14.834 0 -14.834C 8.173815 -14.834 14.8 -8.192593 14.8 0C 14.8 8.192593 8.173815 14.834 0 14.834C -8.173815 14.834 -14.8 8.192593 -14.8 0" stroke="none" fill="#5E2129" fill-rule="nonzero" fill-opacity="0.4392157" />
			</g>
			<g transform="matrix(-1 -0 -0 -1 11.42 36.43)">
                <path d="M-14.834 0C -14.834 -8.173815 -8.192593 -14.8 0 -14.8C 8.192593 -14.8 14.834 -8.173815 14.834 0C 14.834 8.173815 8.192593 14.8 0 14.8C -8.192593 14.8 -14.834 8.173815 -14.834 0" stroke="none" fill="#5E2129" fill-rule="nonzero" fill-opacity="0.4392157" />
			</g>
			<g transform="matrix(1 0 0 1 148.34 36.43)">
                <path d="M-14.834 0C -14.834 -8.173815 -8.192593 -14.8 0 -14.8C 8.192593 -14.8 14.834 -8.173815 14.834 0C 14.834 8.173815 8.192593 14.8 0 14.8C -8.192593 14.8 -14.834 8.173815 -14.834 0" stroke="none" fill="#5E2129" fill-rule="nonzero" fill-opacity="0.4392157" />
			</g>
			<g transform="matrix(-0 -1 1 0 102.7 36.43)">
                <path d="M-14.8 0C -14.8 -8.192593 -8.173815 -14.834 0 -14.834C 8.173815 -14.834 14.8 -8.192593 14.8 0C 14.8 8.192593 8.173815 14.834 0 14.834C -8.173815 14.834 -14.8 8.192593 -14.8 0" stroke="none" fill="#5E2129" fill-rule="nonzero" fill-opacity="0.4392157" />
			</g>
			<g transform="matrix(-0 -1 1 0 -125.53 -11.39)">
                <path d="M-14.8 0C -14.8 -8.192593 -8.173815 -14.834 0 -14.834C 8.173815 -14.834 14.8 -8.192593 14.8 0C 14.8 8.192593 8.173815 14.834 0 14.834C -8.173815 14.834 -14.8 8.192593 -14.8 0" stroke="none" fill="#5E2129" fill-rule="nonzero" fill-opacity="0.4392157" />
			</g>
			<g transform="matrix(1 0 0 1 -171.17 -11.39)">
                <path d="M-14.834 0C -14.834 -8.173815 -8.192593 -14.8 0 -14.8C 8.192593 -14.8 14.834 -8.173815 14.834 0C 14.834 8.173815 8.192593 14.8 0 14.8C -8.192593 14.8 -14.834 8.173815 -14.834 0" stroke="none" fill="#5E2129" fill-rule="nonzero" fill-opacity="0.4392157" />
			</g>
			<g transform="matrix(1 0 0 1 -34.24 -11.39)">
                <path d="M-14.834 0C -14.834 -8.173815 -8.192593 -14.8 0 -14.8C 8.192593 -14.8 14.834 -8.173815 14.834 0C 14.834 8.173815 8.192593 14.8 0 14.8C -8.192593 14.8 -14.834 8.173815 -14.834 0" stroke="none" fill="#5E2129" fill-rule="nonzero" fill-opacity="0.4392157" />
			</g>
			<g transform="matrix(0 1 -1 -0 -79.87 -11.39)">
                <path d="M-14.8 0C -14.8 -8.192593 -8.173815 -14.834 0 -14.834C 8.173815 -14.834 14.8 -8.192593 14.8 0C 14.8 8.192593 8.173815 14.834 0 14.834C -8.173815 14.834 -14.8 8.192593 -14.8 0" stroke="none" fill="#5E2129" fill-rule="nonzero" fill-opacity="0.4392157" />
			</g>
			<g transform="matrix(-0 -1 1 0 57.05 -11.39)">
                <path d="M-14.8 0C -14.8 -8.192593 -8.173815 -14.834 0 -14.834C 8.173815 -14.834 14.8 -8.192593 14.8 0C 14.8 8.192593 8.173815 14.834 0 14.834C -8.173815 14.834 -14.8 8.192593 -14.8 0" stroke="none" fill="#5E2129" fill-rule="nonzero" fill-opacity="0.4392157" />
			</g>
			<g transform="matrix(1 0 0 1 11.41 -11.39)">
                <path d="M-14.834 0C -14.834 -8.173815 -8.192593 -14.8 0 -14.8C 8.192593 -14.8 14.834 -8.173815 14.834 0C 14.834 8.173815 8.192593 14.8 0 14.8C -8.192593 14.8 -14.834 8.173815 -14.834 0" stroke="none" fill="#5E2129" fill-rule="nonzero" fill-opacity="0.4392157" />
			</g>
			<g transform="matrix(1 0 0 1 148.34 -11.39)">
                <path d="M-14.834 0C -14.834 -8.173815 -8.192593 -14.8 0 -14.8C 8.192593 -14.8 14.834 -8.173815 14.834 0C 14.834 8.173815 8.192593 14.8 0 14.8C -8.192593 14.8 -14.834 8.173815 -14.834 0" stroke="none" fill="#5E2129" fill-rule="nonzero" fill-opacity="0.4392157" />
			</g>
			<g transform="matrix(0 1 -1 -0 102.7 -11.39)">
                <path d="M-14.8 0C -14.8 -8.192593 -8.173815 -14.834 0 -14.834C 8.173815 -14.834 14.8 -8.192593 14.8 0C 14.8 8.192593 8.173815 14.834 0 14.834C -8.173815 14.834 -14.8 8.192593 -14.8 0" stroke="none" fill="#5E2129" fill-rule="nonzero" fill-opacity="0.4392157" />
			</g>
			<g transform="matrix(0 1 -1 -0 -102.69 -36.43)">
                <path d="M-14.8 0C -14.8 -8.192593 -8.173815 -14.834 0 -14.834C 8.173815 -14.834 14.8 -8.192593 14.8 0C 14.8 8.192593 8.173815 14.834 0 14.834C -8.173815 14.834 -14.8 8.192593 -14.8 0" stroke="none" fill="#5E2129" fill-rule="nonzero" fill-opacity="0.4392157" />
			</g>
			<g transform="matrix(-1 -0 -0 -1 -148.34 -36.43)">
                <path d="M-14.834 0C -14.834 -8.173815 -8.192593 -14.8 0 -14.8C 8.192593 -14.8 14.834 -8.173815 14.834 0C 14.834 8.173815 8.192593 14.8 0 14.8C -8.192593 14.8 -14.834 8.173815 -14.834 0" stroke="none" fill="#5E2129" fill-rule="nonzero" fill-opacity="0.4392157" />
			</g>
			<g transform="matrix(1 0 0 1 -11.42 -36.43)">
                <path d="M-14.834 0C -14.834 -8.173815 -8.192593 -14.8 0 -14.8C 8.192593 -14.8 14.834 -8.173815 14.834 0C 14.834 8.173815 8.192593 14.8 0 14.8C -8.192593 14.8 -14.834 8.173815 -14.834 0" stroke="none" fill="#5E2129" fill-rule="nonzero" fill-opacity="0.4392157" />
			</g>
			<g transform="matrix(-0 -1 1 0 -57.06 -36.43)">
                <path d="M-14.8 0C -14.8 -8.192593 -8.173815 -14.834 0 -14.834C 8.173815 -14.834 14.8 -8.192593 14.8 0C 14.8 8.192593 8.173815 14.834 0 14.834C -8.173815 14.834 -14.8 8.192593 -14.8 0" stroke="none" fill="#5E2129" fill-rule="nonzero" fill-opacity="0.4392157" />
			</g>
			<g transform="matrix(0 1 -1 -0 79.88 -36.43)">
                <path d="M-14.8 0C -14.8 -8.192593 -8.173815 -14.834 0 -14.834C 8.173815 -14.834 14.8 -8.192593 14.8 0C 14.8 8.192593 8.173815 14.834 0 14.834C -8.173815 14.834 -14.8 8.192593 -14.8 0" stroke="none" fill="#5E2129" fill-rule="nonzero" fill-opacity="0.4392157" />
			</g>
			<g transform="matrix(-1 -0 -0 -1 34.24 -36.43)">
                <path d="M-14.834 0C -14.834 -8.173815 -8.192593 -14.8 0 -14.8C 8.192593 -14.8 14.834 -8.173815 14.834 0C 14.834 8.173815 8.192593 14.8 0 14.8C -8.192593 14.8 -14.834 8.173815 -14.834 0" stroke="none" fill="#5E2129" fill-rule="nonzero" fill-opacity="0.4392157" />
			</g>
			<g transform="matrix(1 0 0 1 171.16 -36.43)">
                <path d="M-14.834 0C -14.834 -8.173815 -8.192593 -14.8 0 -14.8C 8.192593 -14.8 14.834 -8.173815 14.834 0C 14.834 8.173815 8.192593 14.8 0 14.8C -8.192593 14.8 -14.834 8.173815 -14.834 0" stroke="none" fill="#5E2129" fill-rule="nonzero" fill-opacity="0.4392157" />
			</g>
			<g transform="matrix(-0 -1 1 0 125.52 -36.43)">
                <path d="M-14.8 0C -14.8 -8.192593 -8.173815 -14.834 0 -14.834C 8.173815 -14.834 14.8 -8.192593 14.8 0C 14.8 8.192593 8.173815 14.834 0 14.834C -8.173815 14.834 -14.8 8.192593 -14.8 0" stroke="none" fill="#5E2129" fill-rule="nonzero" fill-opacity="0.4392157" />
			</g>
			<g transform="matrix(0 1 -1 -0 -102.69 59.2)">
                <path d="M-14.8 0C -14.8 -8.192593 -8.173815 -14.834 0 -14.834C 8.173815 -14.834 14.8 -8.192593 14.8 0C 14.8 8.192593 8.173815 14.834 0 14.834C -8.173815 14.834 -14.8 8.192593 -14.8 0" stroke="none" fill="#5E2129" fill-rule="nonzero" fill-opacity="0.4392157" />
			</g>
			<g transform="matrix(-1 -0 -0 -1 -148.34 59.2)">
                <path d="M-14.834 0C -14.834 -8.173815 -8.192593 -14.8 0 -14.8C 8.192593 -14.8 14.834 -8.173815 14.834 0C 14.834 8.173815 8.192593 14.8 0 14.8C -8.192593 14.8 -14.834 8.173815 -14.834 0" stroke="none" fill="#5E2129" fill-rule="nonzero" fill-opacity="0.4392157" />
			</g>
			<g transform="matrix(1 0 0 1 -11.42 59.2)">
                <path d="M-14.834 0C -14.834 -8.173815 -8.192593 -14.8 0 -14.8C 8.192593 -14.8 14.834 -8.173815 14.834 0C 14.834 8.173815 8.192593 14.8 0 14.8C -8.192593 14.8 -14.834 8.173815 -14.834 0" stroke="none" fill="#5E2129" fill-rule="nonzero" fill-opacity="0.4392157" />
			</g>
			<g transform="matrix(-0 -1 1 0 -57.06 59.2)">
                <path d="M-14.8 0C -14.8 -8.192593 -8.173815 -14.834 0 -14.834C 8.173815 -14.834 14.8 -8.192593 14.8 0C 14.8 8.192593 8.173815 14.834 0 14.834C -8.173815 14.834 -14.8 8.192593 -14.8 0" stroke="none" fill="#5E2129" fill-rule="nonzero" fill-opacity="0.4392157" />
			</g>
			<g transform="matrix(0 1 -1 -0 79.88 59.2)">
                <path d="M-14.8 0C -14.8 -8.192593 -8.173815 -14.834 0 -14.834C 8.173815 -14.834 14.8 -8.192593 14.8 0C 14.8 8.192593 8.173815 14.834 0 14.834C -8.173815 14.834 -14.8 8.192593 -14.8 0" stroke="none" fill="#5E2129" fill-rule="nonzero" fill-opacity="0.4392157" />
			</g>
			<g transform="matrix(-1 -0 -0 -1 34.24 59.2)">
                <path d="M-14.834 0C -14.834 -8.173815 -8.192593 -14.8 0 -14.8C 8.192593 -14.8 14.834 -8.173815 14.834 0C 14.834 8.173815 8.192593 14.8 0 14.8C -8.192593 14.8 -14.834 8.173815 -14.834 0" stroke="none" fill="#5E2129" fill-rule="nonzero" fill-opacity="0.4392157" />
			</g>
			<g transform="matrix(1 0 0 1 171.16 59.2)">
                <path d="M-14.834 0C -14.834 -8.173815 -8.192593 -14.8 0 -14.8C 8.192593 -14.8 14.834 -8.173815 14.834 0C 14.834 8.173815 8.192593 14.8 0 14.8C -8.192593 14.8 -14.834 8.173815 -14.834 0" stroke="none" fill="#5E2129" fill-rule="nonzero" fill-opacity="0.4392157" />
			</g>
			<g transform="matrix(-0 -1 1 0 125.52 59.2)">
                <path d="M-14.8 0C -14.8 -8.192593 -8.173815 -14.834 0 -14.834C 8.173815 -14.834 14.8 -8.192593 14.8 0C 14.8 8.192593 8.173815 14.834 0 14.834C -8.173815 14.834 -14.8 8.192593 -14.8 0" stroke="none" fill="#5E2129" fill-rule="nonzero" fill-opacity="0.4392157" />
			</g>
			<g transform="matrix(-0 -1 1 0 -102.7 11.38)">
                <path d="M-14.8 0C -14.8 -8.192593 -8.173815 -14.834 0 -14.834C 8.173815 -14.834 14.8 -8.192593 14.8 0C 14.8 8.192593 8.173815 14.834 0 14.834C -8.173815 14.834 -14.8 8.192593 -14.8 0" stroke="none" fill="#5E2129" fill-rule="nonzero" fill-opacity="0.4392157" />
			</g>
			<g transform="matrix(1 0 0 1 -148.35 11.38)">
                <path d="M-14.834 0C -14.834 -8.173815 -8.192593 -14.8 0 -14.8C 8.192593 -14.8 14.834 -8.173815 14.834 0C 14.834 8.173815 8.192593 14.8 0 14.8C -8.192593 14.8 -14.834 8.173815 -14.834 0" stroke="none" fill="#5E2129" fill-rule="nonzero" fill-opacity="0.4392157" />
			</g>
			<g transform="matrix(1 0 0 1 -11.42 11.38)">
                <path d="M-14.834 0C -14.834 -8.173815 -8.192593 -14.8 0 -14.8C 8.192593 -14.8 14.834 -8.173815 14.834 0C 14.834 8.173815 8.192593 14.8 0 14.8C -8.192593 14.8 -14.834 8.173815 -14.834 0" stroke="none" fill="#5E2129" fill-rule="nonzero" fill-opacity="0.4392157" />
			</g>
			<g transform="matrix(0 1 -1 -0 -57.05 11.38)">
                <path d="M-14.8 0C -14.8 -8.192593 -8.173815 -14.834 0 -14.834C 8.173815 -14.834 14.8 -8.192593 14.8 0C 14.8 8.192593 8.173815 14.834 0 14.834C -8.173815 14.834 -14.8 8.192593 -14.8 0" stroke="none" fill="#5E2129" fill-rule="nonzero" fill-opacity="0.4392157" />
			</g>
			<g transform="matrix(-0 -1 1 0 79.87 11.38)">
                <path d="M-14.8 0C -14.8 -8.192593 -8.173815 -14.834 0 -14.834C 8.173815 -14.834 14.8 -8.192593 14.8 0C 14.8 8.192593 8.173815 14.834 0 14.834C -8.173815 14.834 -14.8 8.192593 -14.8 0" stroke="none" fill="#5E2129" fill-rule="nonzero" fill-opacity="0.4392157" />
			</g>
			<g transform="matrix(1 0 0 1 34.23 11.38)">
                <path d="M-14.834 0C -14.834 -8.173815 -8.192593 -14.8 0 -14.8C 8.192593 -14.8 14.834 -8.173815 14.834 0C 14.834 8.173815 8.192593 14.8 0 14.8C -8.192593 14.8 -14.834 8.173815 -14.834 0" stroke="none" fill="#5E2129" fill-rule="nonzero" fill-opacity="0.4392157" />
			</g>
			<g transform="matrix(1 0 0 1 171.16 11.38)">
                <path d="M-14.834 0C -14.834 -8.173815 -8.192593 -14.8 0 -14.8C 8.192593 -14.8 14.834 -8.173815 14.834 0C 14.834 8.173815 8.192593 14.8 0 14.8C -8.192593 14.8 -14.834 8.173815 -14.834 0" stroke="none" fill="#5E2129" fill-rule="nonzero" fill-opacity="0.4392157" />
			</g>
			<g transform="matrix(0 1 -1 -0 125.53 11.38)">
                <path d="M-14.8 0C -14.8 -8.192593 -8.173815 -14.834 0 -14.834C 8.173815 -14.834 14.8 -8.192593 14.8 0C 14.8 8.192593 8.173815 14.834 0 14.834C -8.173815 14.834 -14.8 8.192593 -14.8 0" stroke="none" fill="#5E2129" fill-rule="nonzero" fill-opacity="0.4392157" />
			</g>
		</g>
	</g>
	<g transform="matrix(0 0 0 0 0 0)">
		<g>
		</g>
	</g>
	<g transform="matrix(0 0 0 0 0 0)">
		<g>
		</g>
	</g>
</g>
</svg>